<mxfile host="app.diagrams.net" modified="2021-08-04T00:54:54.417Z" agent="5.0 (Windows NT 10.0; Win64; x64) AppleWebKit/537.36 (KHTML, like Gecko) Chrome/92.0.4515.107 Safari/537.36" etag="UDOObFW-q-KLGcebgih7" version="14.9.4" type="github">
  <diagram id="kgpKYQtTHZ0yAKxKKP6v" name="Page-1">
    <mxGraphModel dx="868" dy="482" grid="1" gridSize="10" guides="1" tooltips="1" connect="1" arrows="1" fold="1" page="1" pageScale="1" pageWidth="850" pageHeight="1100" math="0" shadow="0">
      <root>
        <mxCell id="0" />
        <mxCell id="1" parent="0" />
        <mxCell id="Yn_R7lbO4rpAm2seBpeH-1" value="" style="rounded=0;whiteSpace=wrap;html=1;" vertex="1" parent="1">
          <mxGeometry x="100" y="30" width="630" height="430" as="geometry" />
        </mxCell>
        <mxCell id="Yn_R7lbO4rpAm2seBpeH-2" value="" style="rounded=0;whiteSpace=wrap;html=1;" vertex="1" parent="1">
          <mxGeometry x="100" y="30" width="630" height="60" as="geometry" />
        </mxCell>
        <mxCell id="Yn_R7lbO4rpAm2seBpeH-7" value="FRONT" style="text;html=1;strokeColor=none;fillColor=none;align=center;verticalAlign=middle;whiteSpace=wrap;rounded=0;" vertex="1" parent="1">
          <mxGeometry x="230" y="50" width="40" height="20" as="geometry" />
        </mxCell>
        <mxCell id="Yn_R7lbO4rpAm2seBpeH-8" value="API" style="text;html=1;strokeColor=none;fillColor=none;align=center;verticalAlign=middle;whiteSpace=wrap;rounded=0;" vertex="1" parent="1">
          <mxGeometry x="560" y="50" width="40" height="20" as="geometry" />
        </mxCell>
        <mxCell id="Yn_R7lbO4rpAm2seBpeH-9" value="" style="rounded=0;whiteSpace=wrap;html=1;" vertex="1" parent="1">
          <mxGeometry x="130" y="100" width="180" height="60" as="geometry" />
        </mxCell>
        <mxCell id="Yn_R7lbO4rpAm2seBpeH-10" value="Index.html" style="text;html=1;strokeColor=none;fillColor=none;align=center;verticalAlign=middle;whiteSpace=wrap;rounded=0;" vertex="1" parent="1">
          <mxGeometry x="200" y="120" width="40" height="20" as="geometry" />
        </mxCell>
        <mxCell id="Yn_R7lbO4rpAm2seBpeH-17" value="" style="rounded=0;whiteSpace=wrap;html=1;" vertex="1" parent="1">
          <mxGeometry x="550" y="100" width="120" height="60" as="geometry" />
        </mxCell>
        <mxCell id="Yn_R7lbO4rpAm2seBpeH-18" value="/solve-equation" style="text;html=1;strokeColor=none;fillColor=none;align=center;verticalAlign=middle;whiteSpace=wrap;rounded=0;" vertex="1" parent="1">
          <mxGeometry x="550" y="120" width="130" height="20" as="geometry" />
        </mxCell>
        <mxCell id="Yn_R7lbO4rpAm2seBpeH-27" value="Problem" style="text;html=1;strokeColor=none;fillColor=none;align=center;verticalAlign=middle;whiteSpace=wrap;rounded=0;" vertex="1" parent="1">
          <mxGeometry x="490" y="110" width="40" height="20" as="geometry" />
        </mxCell>
        <mxCell id="Yn_R7lbO4rpAm2seBpeH-29" value="Result" style="text;html=1;strokeColor=none;fillColor=none;align=center;verticalAlign=middle;whiteSpace=wrap;rounded=0;" vertex="1" parent="1">
          <mxGeometry x="330" y="110" width="40" height="20" as="geometry" />
        </mxCell>
        <mxCell id="Yn_R7lbO4rpAm2seBpeH-34" value="" style="rounded=0;whiteSpace=wrap;html=1;" vertex="1" parent="1">
          <mxGeometry x="540" y="210" width="130" height="60" as="geometry" />
        </mxCell>
        <mxCell id="Yn_R7lbO4rpAm2seBpeH-35" value="/save-equation" style="text;html=1;strokeColor=none;fillColor=none;align=center;verticalAlign=middle;whiteSpace=wrap;rounded=0;" vertex="1" parent="1">
          <mxGeometry x="535" y="230" width="140" height="20" as="geometry" />
        </mxCell>
        <mxCell id="Yn_R7lbO4rpAm2seBpeH-39" value="" style="endArrow=classic;startArrow=classic;html=1;entryX=0;entryY=0.5;entryDx=0;entryDy=0;" edge="1" parent="1" target="Yn_R7lbO4rpAm2seBpeH-18">
          <mxGeometry width="50" height="50" relative="1" as="geometry">
            <mxPoint x="310" y="130" as="sourcePoint" />
            <mxPoint x="510" y="130" as="targetPoint" />
          </mxGeometry>
        </mxCell>
        <mxCell id="Yn_R7lbO4rpAm2seBpeH-44" value="" style="shape=cylinder3;whiteSpace=wrap;html=1;boundedLbl=1;backgroundOutline=1;size=15;" vertex="1" parent="1">
          <mxGeometry x="750" y="320" width="90" height="120" as="geometry" />
        </mxCell>
        <mxCell id="Yn_R7lbO4rpAm2seBpeH-45" value="history.sql" style="text;html=1;strokeColor=none;fillColor=none;align=center;verticalAlign=middle;whiteSpace=wrap;rounded=0;" vertex="1" parent="1">
          <mxGeometry x="775" y="380" width="40" height="20" as="geometry" />
        </mxCell>
        <mxCell id="Yn_R7lbO4rpAm2seBpeH-47" value="Problem" style="text;html=1;strokeColor=none;fillColor=none;align=center;verticalAlign=middle;whiteSpace=wrap;rounded=0;" vertex="1" parent="1">
          <mxGeometry x="490" y="230" width="40" height="20" as="geometry" />
        </mxCell>
        <mxCell id="Yn_R7lbO4rpAm2seBpeH-50" value="" style="endArrow=classic;startArrow=classic;html=1;entryX=0.25;entryY=1;entryDx=0;entryDy=0;exitX=0.433;exitY=0.017;exitDx=0;exitDy=0;exitPerimeter=0;" edge="1" parent="1" source="Yn_R7lbO4rpAm2seBpeH-44" target="Yn_R7lbO4rpAm2seBpeH-34">
          <mxGeometry width="50" height="50" relative="1" as="geometry">
            <mxPoint x="400" y="270" as="sourcePoint" />
            <mxPoint x="450" y="220" as="targetPoint" />
            <Array as="points">
              <mxPoint x="573" y="322" />
            </Array>
          </mxGeometry>
        </mxCell>
        <mxCell id="Yn_R7lbO4rpAm2seBpeH-51" value="Save" style="text;html=1;strokeColor=none;fillColor=none;align=center;verticalAlign=middle;whiteSpace=wrap;rounded=0;" vertex="1" parent="1">
          <mxGeometry x="680" y="300" width="40" height="20" as="geometry" />
        </mxCell>
        <mxCell id="Yn_R7lbO4rpAm2seBpeH-52" style="edgeStyle=elbowEdgeStyle;rounded=0;orthogonalLoop=1;jettySize=auto;html=1;exitX=0.5;exitY=1;exitDx=0;exitDy=0;" edge="1" parent="1" source="Yn_R7lbO4rpAm2seBpeH-51" target="Yn_R7lbO4rpAm2seBpeH-51">
          <mxGeometry relative="1" as="geometry" />
        </mxCell>
        <mxCell id="Yn_R7lbO4rpAm2seBpeH-55" value="" style="rounded=0;whiteSpace=wrap;html=1;" vertex="1" parent="1">
          <mxGeometry x="110" y="350" width="180" height="60" as="geometry" />
        </mxCell>
        <mxCell id="Yn_R7lbO4rpAm2seBpeH-56" value="history.html" style="text;html=1;strokeColor=none;fillColor=none;align=center;verticalAlign=middle;whiteSpace=wrap;rounded=0;" vertex="1" parent="1">
          <mxGeometry x="180" y="370" width="40" height="20" as="geometry" />
        </mxCell>
        <mxCell id="Yn_R7lbO4rpAm2seBpeH-57" value="" style="endArrow=classic;startArrow=classic;html=1;exitX=1;exitY=0.5;exitDx=0;exitDy=0;entryX=0;entryY=0.333;entryDx=0;entryDy=0;entryPerimeter=0;" edge="1" parent="1" source="Yn_R7lbO4rpAm2seBpeH-55" target="Yn_R7lbO4rpAm2seBpeH-58">
          <mxGeometry width="50" height="50" relative="1" as="geometry">
            <mxPoint x="400" y="270" as="sourcePoint" />
            <mxPoint x="430" y="360" as="targetPoint" />
            <Array as="points">
              <mxPoint x="370" y="380" />
              <mxPoint x="370" y="360" />
            </Array>
          </mxGeometry>
        </mxCell>
        <mxCell id="Yn_R7lbO4rpAm2seBpeH-58" value="" style="rounded=0;whiteSpace=wrap;html=1;" vertex="1" parent="1">
          <mxGeometry x="500" y="340" width="130" height="60" as="geometry" />
        </mxCell>
        <mxCell id="Yn_R7lbO4rpAm2seBpeH-59" value="/get-equations" style="text;html=1;strokeColor=none;fillColor=none;align=center;verticalAlign=middle;whiteSpace=wrap;rounded=0;" vertex="1" parent="1">
          <mxGeometry x="507.5" y="360" width="115" height="20" as="geometry" />
        </mxCell>
        <mxCell id="Yn_R7lbO4rpAm2seBpeH-61" value="" style="endArrow=classic;startArrow=classic;html=1;exitX=0.75;exitY=1;exitDx=0;exitDy=0;entryX=0;entryY=0.75;entryDx=0;entryDy=0;" edge="1" parent="1" source="Yn_R7lbO4rpAm2seBpeH-9" target="Yn_R7lbO4rpAm2seBpeH-34">
          <mxGeometry width="50" height="50" relative="1" as="geometry">
            <mxPoint x="400" y="270" as="sourcePoint" />
            <mxPoint x="450" y="220" as="targetPoint" />
            <Array as="points">
              <mxPoint x="265" y="200" />
              <mxPoint x="390" y="200" />
              <mxPoint x="390" y="255" />
            </Array>
          </mxGeometry>
        </mxCell>
        <mxCell id="Yn_R7lbO4rpAm2seBpeH-63" value="Status" style="text;html=1;strokeColor=none;fillColor=none;align=center;verticalAlign=middle;whiteSpace=wrap;rounded=0;" vertex="1" parent="1">
          <mxGeometry x="270" y="180" width="40" height="20" as="geometry" />
        </mxCell>
        <mxCell id="Yn_R7lbO4rpAm2seBpeH-64" value="" style="endArrow=classic;startArrow=classic;html=1;entryX=0;entryY=0.458;entryDx=0;entryDy=0;entryPerimeter=0;" edge="1" parent="1" target="Yn_R7lbO4rpAm2seBpeH-44">
          <mxGeometry width="50" height="50" relative="1" as="geometry">
            <mxPoint x="630" y="375" as="sourcePoint" />
            <mxPoint x="620" y="375" as="targetPoint" />
            <Array as="points">
              <mxPoint x="660" y="375" />
            </Array>
          </mxGeometry>
        </mxCell>
        <mxCell id="Yn_R7lbO4rpAm2seBpeH-65" value="Recover" style="text;html=1;strokeColor=none;fillColor=none;align=center;verticalAlign=middle;whiteSpace=wrap;rounded=0;" vertex="1" parent="1">
          <mxGeometry x="660" y="380" width="55" height="20" as="geometry" />
        </mxCell>
        <mxCell id="Yn_R7lbO4rpAm2seBpeH-69" value="Request" style="text;html=1;strokeColor=none;fillColor=none;align=center;verticalAlign=middle;whiteSpace=wrap;rounded=0;" vertex="1" parent="1">
          <mxGeometry x="440" y="340" width="40" height="20" as="geometry" />
        </mxCell>
        <mxCell id="Yn_R7lbO4rpAm2seBpeH-70" value="History" style="text;html=1;strokeColor=none;fillColor=none;align=center;verticalAlign=middle;whiteSpace=wrap;rounded=0;" vertex="1" parent="1">
          <mxGeometry x="300" y="360" width="40" height="20" as="geometry" />
        </mxCell>
        <mxCell id="Yn_R7lbO4rpAm2seBpeH-71" style="edgeStyle=elbowEdgeStyle;rounded=0;orthogonalLoop=1;jettySize=auto;html=1;exitX=1;exitY=0.5;exitDx=0;exitDy=0;" edge="1" parent="1" source="Yn_R7lbO4rpAm2seBpeH-56" target="Yn_R7lbO4rpAm2seBpeH-56">
          <mxGeometry relative="1" as="geometry" />
        </mxCell>
        <mxCell id="Yn_R7lbO4rpAm2seBpeH-72" value="" style="endArrow=none;dashed=1;html=1;dashPattern=1 3;strokeWidth=2;exitX=0.5;exitY=1;exitDx=0;exitDy=0;entryX=0.5;entryY=0;entryDx=0;entryDy=0;" edge="1" parent="1" source="Yn_R7lbO4rpAm2seBpeH-1" target="Yn_R7lbO4rpAm2seBpeH-2">
          <mxGeometry width="50" height="50" relative="1" as="geometry">
            <mxPoint x="510" y="290" as="sourcePoint" />
            <mxPoint x="560" y="240" as="targetPoint" />
          </mxGeometry>
        </mxCell>
        <mxCell id="Yn_R7lbO4rpAm2seBpeH-73" value="DB" style="text;html=1;strokeColor=none;fillColor=none;align=center;verticalAlign=middle;whiteSpace=wrap;rounded=0;" vertex="1" parent="1">
          <mxGeometry x="775" y="290" width="40" height="20" as="geometry" />
        </mxCell>
      </root>
    </mxGraphModel>
  </diagram>
</mxfile>
